<?xml version="1.0" encoding="utf-8"?>
<!-- Uploaded to: SVG Repo, www.svgrepo.com, Generator: SVG Repo Mixer Tools -->
<svg width="800px" height="800px" viewBox="-1 0 20 20" xmlns="http://www.w3.org/2000/svg">
  <g id="tooth-2" transform="translate(-2.998 -2)">
    <path id="secondary" fill="#2ca9bc" d="M19.75,10c-1,5-1,11-3.88,11S13.94,14.24,12,14.24,11,21,8.13,21,5.22,15,4.25,10s1-7,3.88-7a3.62,3.62,0,0,1,2.24.74,2.73,2.73,0,0,0,3.26,0A3.62,3.62,0,0,1,15.87,3C18.78,3,20.72,5,19.75,10Z"/>
    <path id="primary" d="M14,11l2-2L15,7l3.33-3.33" fill="none" stroke="#000000" stroke-linecap="round" stroke-linejoin="round" stroke-width="2"/>
    <path id="primary-2" data-name="primary" d="M19.75,10c-1,5-1,11-3.88,11S13.94,14.24,12,14.24,11,21,8.13,21,5.22,15,4.25,10s1-7,3.88-7a3.62,3.62,0,0,1,2.24.74,2.73,2.73,0,0,0,3.26,0A3.62,3.62,0,0,1,15.87,3C18.78,3,20.72,5,19.75,10Z" fill="none" stroke="#000000" stroke-linecap="round" stroke-linejoin="round" stroke-width="2"/>
  </g>
</svg>